<svg width="56" height="56" viewBox="0 0 56 56" fill="none" xmlns="http://www.w3.org/2000/svg">
<path d="M45.3588 30.3334C44.8454 30.3334 44.3088 30.17 43.7954 30.0534C42.7559 29.8243 41.7343 29.5201 40.7388 29.1434C39.6563 28.7496 38.4664 28.77 37.3982 29.2008C36.3299 29.6315 35.4586 30.4422 34.9521 31.4767L34.4388 32.5267C32.1661 31.2624 30.0777 29.6922 28.2321 27.86C26.3999 26.0144 24.8297 23.926 23.5654 21.6534L24.5454 21C25.58 20.4935 26.3906 19.6223 26.8214 18.554C27.2521 17.4857 27.2726 16.2958 26.8788 15.2134C26.5083 14.2157 26.2043 13.1945 25.9688 12.1567C25.8521 11.6434 25.7588 11.1067 25.6888 10.57C25.4054 8.92647 24.5446 7.43808 23.2612 6.37291C21.9779 5.30774 20.3564 4.73577 18.6888 4.76002H11.6888C10.6832 4.75058 9.68735 4.95792 8.76909 5.36792C7.85083 5.77793 7.03169 6.38098 6.36744 7.13601C5.70319 7.89104 5.20942 8.78034 4.91974 9.74335C4.63007 10.7064 4.55129 11.7205 4.68877 12.7167C5.93183 22.4919 10.3962 31.5744 17.3766 38.5295C24.3571 45.4846 33.4558 49.9159 43.2354 51.1234H44.1221C45.8427 51.1259 47.504 50.4946 48.7888 49.35C49.527 48.6898 50.1166 47.8804 50.5189 46.9754C50.9211 46.0704 51.1267 45.0904 51.1221 44.1V37.1C51.0935 35.4793 50.5033 33.9186 49.4522 32.6846C48.4011 31.4505 46.9543 30.6195 45.3588 30.3334ZM46.5254 44.3334C46.525 44.6647 46.4541 44.9921 46.3173 45.2938C46.1805 45.5955 45.981 45.8647 45.7321 46.0834C45.4714 46.3085 45.1665 46.4766 44.837 46.5771C44.5076 46.6775 44.1607 46.708 43.8188 46.6667C35.0802 45.5462 26.9633 41.5485 20.7484 35.304C14.5336 29.0596 10.5744 20.9238 9.49544 12.18C9.4583 11.8382 9.49085 11.4925 9.59111 11.1636C9.69137 10.8347 9.85727 10.5296 10.0788 10.2667C10.2974 10.0178 10.5666 9.81831 10.8683 9.68152C11.1701 9.54474 11.4975 9.47377 11.8288 9.47335H18.8288C19.3714 9.46128 19.9012 9.63874 20.3271 9.97518C20.753 10.3116 21.0483 10.786 21.1621 11.3167C21.2554 11.9545 21.3721 12.5845 21.5121 13.2067C21.7817 14.4367 22.1404 15.6454 22.5854 16.8234L19.3188 18.34C19.0395 18.4682 18.7882 18.6502 18.5795 18.8757C18.3707 19.1013 18.2086 19.3658 18.1023 19.6541C17.9961 19.9425 17.9479 20.249 17.9604 20.556C17.973 20.8631 18.046 21.1646 18.1754 21.4434C21.5336 28.6364 27.3157 34.4186 34.5088 37.7767C35.0768 38.0101 35.714 38.0101 36.2821 37.7767C36.5731 37.6726 36.8405 37.5117 37.0688 37.3035C37.2972 37.0952 37.4818 36.8436 37.6121 36.5634L39.0588 33.2967C40.265 33.7281 41.4961 34.0865 42.7454 34.37C43.3677 34.51 43.9977 34.6267 44.6354 34.72C45.1661 34.8339 45.6405 35.1291 45.9769 35.555C46.3134 35.9809 46.4908 36.5107 46.4788 37.0534L46.5254 44.3334Z" fill="#4D44B5"/>
</svg>
