<svg width="40" height="40" viewBox="0 0 40 40" fill="none" xmlns="http://www.w3.org/2000/svg">
<path d="M33.3337 3.3335H16.667C15.3409 3.3335 14.0691 3.86028 13.1315 4.79796C12.1938 5.73564 11.667 7.00741 11.667 8.3335V11.6668H6.66699C5.34091 11.6668 4.06914 12.1936 3.13146 13.1313C2.19378 14.069 1.66699 15.3407 1.66699 16.6668V26.6668C1.66645 27.7013 1.98675 28.7104 2.58375 29.5551C3.18075 30.3999 4.02507 31.0387 5.00033 31.3835V35.0002C5.00083 35.2955 5.07981 35.5854 5.22916 35.8402C5.37851 36.0949 5.59288 36.3055 5.85033 36.4502C6.09942 36.5913 6.38068 36.666 6.66699 36.6668C6.96613 36.6667 7.25973 36.5861 7.51699 36.4335L15.467 31.6668H23.3337C24.6597 31.6668 25.9315 31.14 26.8692 30.2024C27.8069 29.2647 28.3337 27.9929 28.3337 26.6668V25.6168L32.4837 28.1002C32.7409 28.2528 33.0345 28.3334 33.3337 28.3335C33.62 28.3326 33.9012 28.258 34.1503 28.1168C34.4078 27.9721 34.6221 27.7616 34.7715 27.5068C34.9208 27.252 34.9998 26.9622 35.0003 26.6668V23.0502C35.9756 22.7054 36.8199 22.0666 37.4169 21.2218C38.0139 20.377 38.3342 19.3679 38.3337 18.3335V8.3335C38.3337 7.00741 37.8069 5.73564 36.8692 4.79796C35.9315 3.86028 34.6597 3.3335 33.3337 3.3335ZM25.0003 26.6668C25.0003 27.1089 24.8247 27.5328 24.5122 27.8453C24.1996 28.1579 23.7757 28.3335 23.3337 28.3335H15.0003C14.7012 28.3336 14.4076 28.4142 14.1503 28.5668L8.33366 32.0502V30.0002C8.33366 29.5581 8.15806 29.1342 7.8455 28.8217C7.53294 28.5091 7.10902 28.3335 6.66699 28.3335C6.22497 28.3335 5.80104 28.1579 5.48848 27.8453C5.17592 27.5328 5.00033 27.1089 5.00033 26.6668V16.6668C5.00033 16.2248 5.17592 15.8009 5.48848 15.4883C5.80104 15.1758 6.22497 15.0002 6.66699 15.0002H11.667V18.3335C11.667 19.6596 12.1938 20.9313 13.1315 21.869C14.0691 22.8067 15.3409 23.3335 16.667 23.3335H24.5337L25.0003 23.6168V26.6668ZM35.0003 18.3335C35.0003 18.7755 34.8247 19.1994 34.5122 19.512C34.1996 19.8246 33.7757 20.0002 33.3337 20.0002C32.8916 20.0002 32.4677 20.1758 32.1551 20.4883C31.8426 20.8009 31.667 21.2248 31.667 21.6668V23.7168L25.8503 20.2335C25.5931 20.0808 25.2995 20.0003 25.0003 20.0002H16.667C16.225 20.0002 15.801 19.8246 15.4885 19.512C15.1759 19.1994 15.0003 18.7755 15.0003 18.3335V8.3335C15.0003 7.89147 15.1759 7.46755 15.4885 7.15499C15.801 6.84242 16.225 6.66683 16.667 6.66683H33.3337C33.7757 6.66683 34.1996 6.84242 34.5122 7.15499C34.8247 7.46755 35.0003 7.89147 35.0003 8.3335V18.3335Z" fill="#C1BBEB"/>
</svg>
