<svg width="160" height="160" viewBox="0 0 160 160" fill="none" xmlns="http://www.w3.org/2000/svg">
<g filter="url(#filter0_d_5_675)">
<rect x="50" y="30" width="60" height="60" rx="30" fill="white"/>
</g>
<path d="M76.2632 46.6666L75.4168 50.4661C74.9355 50.6977 74.4753 50.9645 74.034 51.2656L70.3205 50.0963L66.5835 56.5703L69.3986 59.1484C69.2886 59.9648 69.3384 60.3672 69.3986 60.8515L66.5835 63.4296L70.3205 69.9036L74.034 68.7343C74.4753 69.0354 74.9355 69.3022 75.4168 69.5338L76.2632 73.3333H83.7371L84.5835 69.5338C85.0649 69.3022 85.525 69.0354 85.9663 68.7343L89.6798 69.9036L93.4168 63.4296L90.6017 60.8515C90.6247 60.5681 90.6665 60.2845 90.6668 60C90.6679 59.7068 90.6217 59.4107 90.6017 59.1484L93.4168 56.5703L89.6798 50.0963L85.9663 51.2656C85.525 50.9645 85.0649 50.6977 84.5835 50.4661L83.7371 46.6666H76.2632ZM78.4038 49.3333H81.5965L82.2554 52.2916L82.9168 52.552C83.6651 52.8451 84.3645 53.2484 84.9923 53.75L85.5496 54.1927L88.4403 53.2838L90.0366 56.0494L87.8022 58.0989L87.909 58.802C88.0347 59.5796 88.0103 60.4745 87.909 61.1979L87.8022 61.901L90.0366 63.9505L88.4403 66.7161L85.5496 65.8073L84.9923 66.25C84.3645 66.7515 83.6651 67.1548 82.9168 67.4479L82.2554 67.7083L81.5965 70.6666H78.4038L77.745 67.7083L77.0835 67.4479C76.3353 67.1548 75.6358 66.7515 75.008 66.25L74.4507 65.8073L71.5601 66.7161L69.9637 63.9505L72.1981 61.901L72.0913 61.1979C71.9611 60.4046 71.9811 59.4967 72.0913 58.802L72.1981 58.0989L69.9637 56.0494L71.5601 53.2838L74.4507 54.1927L75.008 53.75C75.6358 53.2484 76.3353 52.8451 77.0835 52.552L77.745 52.2916L78.4038 49.3333ZM80.0002 54.6666C77.0704 54.6666 74.6668 57.0702 74.6668 60C74.6668 62.9297 77.0704 65.3333 80.0002 65.3333C82.9299 65.3333 85.3335 62.9297 85.3335 60C85.3335 57.0702 82.9299 54.6666 80.0002 54.6666ZM80.0002 57.3333C81.4887 57.3333 82.6668 58.5114 82.6668 60C82.6668 61.4885 81.4887 62.6666 80.0002 62.6666C78.5116 62.6666 77.3335 61.4885 77.3335 60C77.3335 58.5114 78.5116 57.3333 80.0002 57.3333Z" fill="#A098AE"/>
<defs>
<filter id="filter0_d_5_675" x="0" y="0" width="160" height="160" filterUnits="userSpaceOnUse" color-interpolation-filters="sRGB">
<feFlood flood-opacity="0" result="BackgroundImageFix"/>
<feColorMatrix in="SourceAlpha" type="matrix" values="0 0 0 0 0 0 0 0 0 0 0 0 0 0 0 0 0 0 127 0" result="hardAlpha"/>
<feOffset dy="20"/>
<feGaussianBlur stdDeviation="25"/>
<feColorMatrix type="matrix" values="0 0 0 0 0.74902 0 0 0 0 0.0823529 0 0 0 0 0.423529 0 0 0 0.05 0"/>
<feBlend mode="normal" in2="BackgroundImageFix" result="effect1_dropShadow_5_675"/>
<feBlend mode="normal" in="SourceGraphic" in2="effect1_dropShadow_5_675" result="shape"/>
</filter>
</defs>
</svg>
